<svg width="40" height="40" viewBox="0 0 40 40" fill="none" xmlns="http://www.w3.org/2000/svg">
  <mask id="mask0" mask-type="alpha" maskUnits="userSpaceOnUse" x="0" y="0" width="40" height="40">
    <path fill-rule="evenodd" clip-rule="evenodd" d="M20 40C31.0457 40 40 31.0457 40 20C40 8.9543 31.0457 0 20 0C8.9543 0 0 8.9543 0 20C0 31.0457 8.9543 40 20 40Z" fill="white"/>
  </mask>
  <g mask="url(#mask0)">
    <rect width="40" height="40" fill="#6200EE"/>
    <path d="M25.9844 20.2617C25.9844 21.6549 25.7435 22.8789 25.2617 23.9336C24.7799 24.9818 24.0898 25.7891 23.1914 26.3555C22.2995 26.9154 21.2708 27.1953 20.1055 27.1953C18.9531 27.1953 17.9245 26.9154 17.0195 26.3555C16.1211 25.7891 15.4245 24.985 14.9297 23.9434C14.4414 22.9017 14.194 21.7005 14.1875 20.3398V19.5391C14.1875 18.1523 14.4316 16.9284 14.9199 15.8672C15.4147 14.806 16.1081 13.9954 17 13.4355C17.8984 12.8691 18.9271 12.5859 20.0859 12.5859C21.2448 12.5859 22.2702 12.8659 23.1621 13.4258C24.0605 13.9792 24.7539 14.7799 25.2422 15.8281C25.7305 16.8698 25.9779 18.084 25.9844 19.4707V20.2617ZM23.5137 19.5195C23.5137 17.944 23.2142 16.7363 22.6152 15.8965C22.0228 15.0566 21.1797 14.6367 20.0859 14.6367C19.0182 14.6367 18.1816 15.0566 17.5762 15.8965C16.9772 16.7298 16.6712 17.9115 16.6582 19.4414V20.2617C16.6582 21.8242 16.9609 23.0319 17.5664 23.8848C18.1784 24.7376 19.0247 25.1641 20.1055 25.1641C21.1992 25.1641 22.0391 24.7474 22.625 23.9141C23.2174 23.0807 23.5137 21.8633 23.5137 20.2617V19.5195Z" fill="white"/>
  </g>
</svg>
